# xmcd
#
# Track frame offsets:
#	150
#	22180
#	42642
#	63607
#	81910
#	101572
#	121397
#	143175
#	163490
#	177515
#
# Disc length: 2632 seconds
#
# Revision: 3
# Processed by: cddbd v1.5.2PL0 Copyright (c) Steve Scherf et al.
# Submitted via: EasyCDDAExtractor 15.3.0.1
#
DISCID=990a460a
DTITLE=Alvaro Torres - Amante De La Vida
DYEAR=2000
DGENRE=Latin
TTITLE0=¡Ojala!
TTITLE1=La Unica
TTITLE2=Sencilla Y Bella
TTITLE3=Te Va A Doler
TTITLE4=Mi Unica Alegria
TTITLE5=Para Olvidarme De Ti
TTITLE6=Amante De La Vida
TTITLE7=Eres Especial
TTITLE8=No Seas Malita
TTITLE9=¡Que Pasion!
EXTD=
EXTT0=
EXTT1=
EXTT2=
EXTT3=
EXTT4=
EXTT5=
EXTT6=
EXTT7=
EXTT8=
EXTT9=
PLAYORDER=
